<svg width="160" height="52" viewBox="0 0 160 52" fill="none" xmlns="http://www.w3.org/2000/svg">
<path d="M65.2258 18.4919V7.60946H72.4312V9.50646H67.5266V12.0995H71.9529V13.9965H67.5266V18.4919H65.2258ZM78.6588 15.0168V10.3301H80.9225V18.4919H78.7492V17.0094H78.6642C78.4799 17.4877 78.1735 17.872 77.7449 18.1625C77.3198 18.453 76.8008 18.5982 76.188 18.5982C75.6424 18.5982 75.1624 18.4742 74.7479 18.2263C74.3335 17.9783 74.0093 17.6258 73.7755 17.1688C73.5453 16.7119 73.4284 16.1645 73.4248 15.5269V10.3301H75.6885V15.1231C75.692 15.6048 75.8213 15.9856 76.0764 16.2655C76.3314 16.5454 76.6733 16.6853 77.1019 16.6853C77.3747 16.6853 77.6298 16.6233 77.8671 16.4993C78.1044 16.3718 78.2957 16.184 78.441 15.936C78.5898 15.6881 78.6624 15.3817 78.6588 15.0168ZM87.0744 10.3301V12.0305H82.1592V10.3301H87.0744ZM83.2751 8.37464H85.5388V15.9839C85.5388 16.1929 85.5706 16.3558 85.6344 16.4727C85.6982 16.5861 85.7867 16.6658 85.9001 16.7119C86.017 16.7579 86.1516 16.7809 86.3039 16.7809C86.4102 16.7809 86.5165 16.7721 86.6228 16.7544C86.729 16.7331 86.8105 16.7172 86.8672 16.7065L87.2232 18.391C87.1099 18.4264 86.9504 18.4671 86.745 18.5132C86.5395 18.5628 86.2898 18.5929 85.9957 18.6035C85.4502 18.6248 84.972 18.5522 84.561 18.3857C84.1537 18.2192 83.8366 17.9606 83.6099 17.6099C83.3832 17.2592 83.2716 16.8164 83.2751 16.2814V8.37464ZM93.783 15.0168V10.3301H96.0466V18.4919H93.8733V17.0094H93.7883C93.6041 17.4877 93.2977 17.872 92.869 18.1625C92.4439 18.453 91.925 18.5982 91.3121 18.5982C90.7666 18.5982 90.2866 18.4742 89.8721 18.2263C89.4576 17.9783 89.1335 17.6258 88.8997 17.1688C88.6694 16.7119 88.5525 16.1645 88.549 15.5269V10.3301H90.8126V15.1231C90.8162 15.6048 90.9455 15.9856 91.2005 16.2655C91.4556 16.5454 91.7974 16.6853 92.2261 16.6853C92.4988 16.6853 92.7539 16.6233 92.9912 16.4993C93.2286 16.3718 93.4199 16.184 93.5651 15.936C93.7139 15.6881 93.7865 15.3817 93.783 15.0168ZM97.8573 18.4919V10.3301H100.052V11.7542H100.137C100.286 11.2476 100.535 10.865 100.886 10.6064C101.237 10.3443 101.641 10.2132 102.098 10.2132C102.211 10.2132 102.333 10.2203 102.464 10.2344C102.595 10.2486 102.71 10.2681 102.81 10.2929V12.3015C102.703 12.2696 102.556 12.2412 102.369 12.2165C102.181 12.1917 102.009 12.1793 101.853 12.1793C101.52 12.1793 101.223 12.2519 100.96 12.3971C100.702 12.5388 100.496 12.7372 100.344 12.9923C100.195 13.2473 100.121 13.5413 100.121 13.8743V18.4919H97.8573ZM107.32 18.6514C106.48 18.6514 105.757 18.4813 105.152 18.1412C104.549 17.7976 104.085 17.3123 103.759 16.6853C103.434 16.0547 103.271 15.309 103.271 14.4482C103.271 13.6086 103.434 12.8718 103.759 12.2377C104.085 11.6036 104.544 11.1094 105.136 10.7552C105.731 10.4009 106.429 10.2238 107.229 10.2238C107.768 10.2238 108.269 10.3106 108.733 10.4842C109.201 10.6542 109.608 10.911 109.955 11.2547C110.306 11.5983 110.579 12.0305 110.774 12.5512C110.968 13.0684 111.066 13.6742 111.066 14.3685V14.9902H104.174V13.5874H108.935C108.935 13.2615 108.864 12.9728 108.722 12.7213C108.581 12.4697 108.384 12.2731 108.133 12.1314C107.885 11.9862 107.596 11.9136 107.267 11.9136C106.923 11.9136 106.618 11.9933 106.353 12.1527C106.09 12.3086 105.885 12.5193 105.736 12.785C105.587 13.0472 105.511 13.3394 105.508 13.6618V14.9955C105.508 15.3994 105.582 15.7483 105.731 16.0423C105.883 16.3363 106.098 16.5631 106.374 16.7225C106.65 16.8819 106.978 16.9616 107.357 16.9616C107.608 16.9616 107.839 16.9262 108.048 16.8553C108.257 16.7845 108.436 16.6782 108.584 16.5365C108.733 16.3948 108.846 16.2212 108.924 16.0158L111.018 16.1539C110.912 16.6569 110.694 17.0962 110.364 17.4717C110.039 17.8437 109.617 18.1342 109.1 18.3432C108.586 18.5486 107.993 18.6514 107.32 18.6514ZM67.1015 33.4919H64.636L68.3928 22.6095H71.3578L75.1093 33.4919H72.6437L69.9178 25.0963H69.8328L67.1015 33.4919ZM66.9474 29.2144H72.7712V31.0104H66.9474V29.2144ZM82.9776 27.6575L80.9052 27.785C80.8698 27.6079 80.7936 27.4485 80.6767 27.3068C80.5598 27.1615 80.4057 27.0464 80.2144 26.9614C80.0267 26.8728 79.8017 26.8286 79.5396 26.8286C79.1889 26.8286 78.8931 26.9029 78.6522 27.0517C78.4113 27.197 78.2909 27.3918 78.2909 27.6362C78.2909 27.8311 78.3688 27.9958 78.5247 28.1304C78.6805 28.265 78.948 28.3731 79.327 28.4545L80.8043 28.7521C81.5978 28.9151 82.1894 29.1772 82.579 29.5385C82.9687 29.8999 83.1635 30.3746 83.1635 30.9626C83.1635 31.4975 83.0059 31.9669 82.6906 32.3708C82.3789 32.7746 81.9502 33.0899 81.4047 33.3166C80.8627 33.5398 80.2375 33.6514 79.529 33.6514C78.4485 33.6514 77.5877 33.4264 76.9465 32.9765C76.3089 32.5231 75.9351 31.9067 75.8253 31.1273L78.0517 31.0104C78.1191 31.3399 78.282 31.5914 78.5406 31.765C78.7992 31.935 79.1304 32.02 79.5343 32.02C79.931 32.02 80.2499 31.9439 80.4907 31.7916C80.7352 31.6357 80.8592 31.4355 80.8627 31.1911C80.8592 30.9856 80.7724 30.8174 80.6023 30.6863C80.4323 30.5517 80.1701 30.449 79.8159 30.3781L78.4025 30.0965C77.6054 29.9371 77.012 29.6608 76.6224 29.2675C76.2362 28.8743 76.0432 28.3731 76.0432 27.7638C76.0432 27.2395 76.1849 26.7878 76.4683 26.4088C76.7552 26.0297 77.1573 25.7375 77.6745 25.532C78.1952 25.3265 78.8045 25.2238 79.5024 25.2238C80.5333 25.2238 81.3445 25.4417 81.9361 25.8774C82.5312 26.3131 82.8784 26.9065 82.9776 27.6575ZM91.3799 27.6575L89.3075 27.785C89.2721 27.6079 89.1959 27.4485 89.079 27.3068C88.9621 27.1615 88.808 27.0464 88.6167 26.9614C88.429 26.8728 88.204 26.8286 87.9419 26.8286C87.5912 26.8286 87.2954 26.9029 87.0545 27.0517C86.8136 27.197 86.6932 27.3918 86.6932 27.6362C86.6932 27.8311 86.7711 27.9958 86.927 28.1304C87.0828 28.265 87.3503 28.3731 87.7293 28.4545L89.2066 28.7521C90.0001 28.9151 90.5917 29.1772 90.9813 29.5385C91.371 29.8999 91.5658 30.3746 91.5658 30.9626C91.5658 31.4975 91.4082 31.9669 91.0929 32.3708C90.7812 32.7746 90.3525 33.0899 89.807 33.3166C89.265 33.5398 88.6398 33.6514 87.9313 33.6514C86.8508 33.6514 85.99 33.4264 85.3488 32.9765C84.7112 32.5231 84.3374 31.9067 84.2276 31.1273L86.4541 31.0104C86.5214 31.3399 86.6843 31.5914 86.9429 31.765C87.2015 31.935 87.5327 32.02 87.9366 32.02C88.3333 32.02 88.6522 31.9439 88.893 31.7916C89.1375 31.6357 89.2615 31.4355 89.265 31.1911C89.2615 30.9856 89.1747 30.8174 89.0046 30.6863C88.8346 30.5517 88.5725 30.449 88.2182 30.3781L86.8048 30.0965C86.0077 29.9371 85.4143 29.6608 85.0247 29.2675C84.6385 28.8743 84.4455 28.3731 84.4455 27.7638C84.4455 27.2395 84.5872 26.7878 84.8706 26.4088C85.1575 26.0297 85.5596 25.7375 86.0768 25.532C86.5975 25.3265 87.2068 25.2238 87.9047 25.2238C88.9356 25.2238 89.7468 25.4417 90.3384 25.8774C90.9335 26.3131 91.2807 26.9065 91.3799 27.6575ZM96.7108 33.6514C95.8713 33.6514 95.1486 33.4813 94.5428 33.1412C93.9406 32.7976 93.4766 32.3123 93.1507 31.6853C92.8247 31.0547 92.6618 30.309 92.6618 29.4482C92.6618 28.6086 92.8247 27.8718 93.1507 27.2377C93.4766 26.6036 93.9353 26.1094 94.5269 25.7552C95.122 25.4009 95.8199 25.2238 96.6205 25.2238C97.159 25.2238 97.6602 25.3106 98.1243 25.4842C98.5919 25.6542 98.9993 25.911 99.3464 26.2547C99.6971 26.5983 99.9699 27.0305 100.165 27.5512C100.36 28.0684 100.457 28.6742 100.457 29.3685V29.9902H93.5651V28.5874H98.3262C98.3262 28.2615 98.2554 27.9728 98.1137 27.7213C97.972 27.4697 97.7754 27.2731 97.5238 27.1314C97.2759 26.9862 96.9872 26.9136 96.6577 26.9136C96.3141 26.9136 96.0094 26.9933 95.7437 27.1527C95.4816 27.3086 95.2761 27.5193 95.1274 27.785C94.9786 28.0472 94.9024 28.3394 94.8989 28.6618V29.9955C94.8989 30.3994 94.9733 30.7483 95.122 31.0423C95.2744 31.3363 95.4887 31.5631 95.765 31.7225C96.0413 31.8819 96.369 31.9616 96.748 31.9616C96.9996 31.9616 97.2298 31.9262 97.4388 31.8553C97.6478 31.7845 97.8267 31.6782 97.9755 31.5365C98.1243 31.3948 98.2376 31.2212 98.3156 31.0158L100.409 31.1539C100.303 31.6569 100.085 32.0962 99.7556 32.4717C99.4297 32.8437 99.0081 33.1342 98.4909 33.3432C97.9773 33.5486 97.3839 33.6514 96.7108 33.6514ZM108.725 27.6575L106.653 27.785C106.617 27.6079 106.541 27.4485 106.424 27.3068C106.307 27.1615 106.153 27.0464 105.962 26.9614C105.774 26.8728 105.549 26.8286 105.287 26.8286C104.936 26.8286 104.641 26.9029 104.4 27.0517C104.159 27.197 104.038 27.3918 104.038 27.6362C104.038 27.8311 104.116 27.9958 104.272 28.1304C104.428 28.265 104.696 28.3731 105.075 28.4545L106.552 28.7521C107.345 28.9151 107.937 29.1772 108.327 29.5385C108.716 29.8999 108.911 30.3746 108.911 30.9626C108.911 31.4975 108.753 31.9669 108.438 32.3708C108.126 32.7746 107.698 33.0899 107.152 33.3166C106.61 33.5398 105.985 33.6514 105.277 33.6514C104.196 33.6514 103.335 33.4264 102.694 32.9765C102.056 32.5231 101.683 31.9067 101.573 31.1273L103.799 31.0104C103.867 31.3399 104.03 31.5914 104.288 31.765C104.547 31.935 104.878 32.02 105.282 32.02C105.679 32.02 105.997 31.9439 106.238 31.7916C106.483 31.6357 106.607 31.4355 106.61 31.1911C106.607 30.9856 106.52 30.8174 106.35 30.6863C106.18 30.5517 105.918 30.449 105.563 30.3781L104.15 30.0965C103.353 29.9371 102.76 29.6608 102.37 29.2675C101.984 28.8743 101.791 28.3731 101.791 27.7638C101.791 27.2395 101.932 26.7878 102.216 26.4088C102.503 26.0297 102.905 25.7375 103.422 25.532C103.943 25.3265 104.552 25.2238 105.25 25.2238C106.281 25.2238 107.092 25.4417 107.684 25.8774C108.279 26.3131 108.626 26.9065 108.725 27.6575ZM117.127 27.6575L115.055 27.785C115.02 27.6079 114.944 27.4485 114.827 27.3068C114.71 27.1615 114.556 27.0464 114.364 26.9614C114.177 26.8728 113.952 26.8286 113.689 26.8286C113.339 26.8286 113.043 26.9029 112.802 27.0517C112.561 27.197 112.441 27.3918 112.441 27.6362C112.441 27.8311 112.519 27.9958 112.675 28.1304C112.83 28.265 113.098 28.3731 113.477 28.4545L114.954 28.7521C115.748 28.9151 116.339 29.1772 116.729 29.5385C117.119 29.8999 117.313 30.3746 117.313 30.9626C117.313 31.4975 117.156 31.9669 116.841 32.3708C116.529 32.7746 116.1 33.0899 115.555 33.3166C115.013 33.5398 114.387 33.6514 113.679 33.6514C112.598 33.6514 111.738 33.4264 111.096 32.9765C110.459 32.5231 110.085 31.9067 109.975 31.1273L112.202 31.0104C112.269 31.3399 112.432 31.5914 112.69 31.765C112.949 31.935 113.28 32.02 113.684 32.02C114.081 32.02 114.4 31.9439 114.641 31.7916C114.885 31.6357 115.009 31.4355 115.013 31.1911C115.009 30.9856 114.922 30.8174 114.752 30.6863C114.582 30.5517 114.32 30.449 113.966 30.3781L112.552 30.0965C111.755 29.9371 111.162 29.6608 110.772 29.2675C110.386 28.8743 110.193 28.3731 110.193 27.7638C110.193 27.2395 110.335 26.7878 110.618 26.4088C110.905 26.0297 111.307 25.7375 111.824 25.532C112.345 25.3265 112.954 25.2238 113.652 25.2238C114.683 25.2238 115.494 25.4417 116.086 25.8774C116.681 26.3131 117.028 26.9065 117.127 27.6575ZM118.739 33.4919V25.3301H120.896V26.7701H120.992C121.162 26.2919 121.445 25.9146 121.842 25.6383C122.239 25.362 122.713 25.2238 123.266 25.2238C123.826 25.2238 124.302 25.3637 124.695 25.6436C125.089 25.9199 125.351 26.2954 125.482 26.7701H125.567C125.733 26.3025 126.035 25.9288 126.47 25.6489C126.91 25.3655 127.429 25.2238 128.027 25.2238C128.789 25.2238 129.407 25.4665 129.882 25.9518C130.36 26.4336 130.599 27.1173 130.599 28.0029V33.4919H128.341V28.4492C128.341 27.9958 128.22 27.6557 127.979 27.429C127.738 27.2023 127.437 27.0889 127.076 27.0889C126.665 27.0889 126.345 27.22 126.114 27.4821C125.884 27.7407 125.769 28.0826 125.769 28.5077V33.4919H123.574V28.4014C123.574 28.0011 123.459 27.6823 123.229 27.4449C123.002 27.2076 122.703 27.0889 122.331 27.0889C122.079 27.0889 121.853 27.1527 121.651 27.2802C121.452 27.4042 121.295 27.5796 121.178 27.8063C121.061 28.0294 121.002 28.2916 121.002 28.5927V33.4919H118.739ZM136.107 33.6514C135.267 33.6514 134.544 33.4813 133.939 33.1412C133.336 32.7976 132.872 32.3123 132.547 31.6853C132.221 31.0547 132.058 30.309 132.058 29.4482C132.058 28.6086 132.221 27.8718 132.547 27.2377C132.872 26.6036 133.331 26.1094 133.923 25.7552C134.518 25.4009 135.216 25.2238 136.016 25.2238C136.555 25.2238 137.056 25.3106 137.52 25.4842C137.988 25.6542 138.395 25.911 138.742 26.2547C139.093 26.5983 139.366 27.0305 139.561 27.5512C139.755 28.0684 139.853 28.6742 139.853 29.3685V29.9902H132.961V28.5874H137.722C137.722 28.2615 137.651 27.9728 137.51 27.7213C137.368 27.4697 137.171 27.2731 136.92 27.1314C136.672 26.9862 136.383 26.9136 136.054 26.9136C135.71 26.9136 135.405 26.9933 135.14 27.1527C134.877 27.3086 134.672 27.5193 134.523 27.785C134.374 28.0472 134.298 28.3394 134.295 28.6618V29.9955C134.295 30.3994 134.369 30.7483 134.518 31.0423C134.67 31.3363 134.885 31.5631 135.161 31.7225C135.437 31.8819 135.765 31.9616 136.144 31.9616C136.395 31.9616 136.626 31.9262 136.835 31.8553C137.044 31.7845 137.223 31.6782 137.371 31.5365C137.52 31.3948 137.633 31.2212 137.711 31.0158L139.805 31.1539C139.699 31.6569 139.481 32.0962 139.151 32.4717C138.826 32.8437 138.404 33.1342 137.887 33.3432C137.373 33.5486 136.78 33.6514 136.107 33.6514ZM143.594 28.7734V33.4919H141.33V25.3301H143.487V26.7701H143.583C143.764 26.2954 144.067 25.9199 144.492 25.6436C144.917 25.3637 145.432 25.2238 146.038 25.2238C146.605 25.2238 147.099 25.3478 147.521 25.5958C147.942 25.8437 148.27 26.198 148.504 26.6585C148.737 27.1155 148.854 27.661 148.854 28.2951V33.4919H146.591V28.699C146.594 28.1995 146.467 27.8098 146.208 27.53C145.949 27.2466 145.593 27.1049 145.14 27.1049C144.835 27.1049 144.566 27.1704 144.332 27.3015C144.102 27.4325 143.921 27.6238 143.79 27.8754C143.663 28.1233 143.597 28.4227 143.594 28.7734ZM154.98 25.3301V27.0305H150.064V25.3301H154.98ZM151.18 23.3746H153.444V30.9839C153.444 31.1929 153.476 31.3558 153.54 31.4727C153.603 31.5861 153.692 31.6658 153.805 31.7119C153.922 31.7579 154.057 31.7809 154.209 31.7809C154.315 31.7809 154.422 31.7721 154.528 31.7544C154.634 31.7331 154.716 31.7172 154.772 31.7065L155.128 33.391C155.015 33.4264 154.856 33.4671 154.65 33.5132C154.445 33.5628 154.195 33.5929 153.901 33.6035C153.355 33.6248 152.877 33.5522 152.466 33.3857C152.059 33.2192 151.742 32.9606 151.515 32.6099C151.288 32.2592 151.177 31.8164 151.18 31.2814V23.3746ZM71.1293 40.7392C71.0868 40.3106 70.9044 39.9776 70.582 39.7403C70.2596 39.5029 69.8221 39.3842 69.2695 39.3842C68.894 39.3842 68.577 39.4374 68.3184 39.5437C68.0598 39.6464 67.8614 39.7899 67.7232 39.9741C67.5886 40.1583 67.5213 40.3673 67.5213 40.6011C67.5142 40.7959 67.555 40.966 67.6435 41.1112C67.7356 41.2564 67.8614 41.3822 68.0208 41.4885C68.1802 41.5912 68.3644 41.6815 68.5734 41.7595C68.7824 41.8339 69.0056 41.8976 69.2429 41.9508L70.2207 42.1846C70.6954 42.2908 71.1311 42.4325 71.5278 42.6097C71.9246 42.7868 72.2682 43.0047 72.5587 43.2633C72.8492 43.5219 73.0741 43.8265 73.2335 44.1772C73.3965 44.5279 73.4797 44.93 73.4833 45.3834C73.4797 46.0494 73.3097 46.6268 72.9732 47.1157C72.6402 47.601 72.1584 47.9783 71.5278 48.2475C70.9008 48.5132 70.1445 48.646 69.2589 48.646C68.3804 48.646 67.6152 48.5114 66.9634 48.2422C66.3151 47.973 65.8085 47.5744 65.4436 47.0466C65.0823 46.5152 64.8928 45.8581 64.8751 45.0752H67.1015C67.1263 45.4401 67.2308 45.7448 67.415 45.9892C67.6028 46.2301 67.8525 46.4125 68.1643 46.5365C68.4795 46.6569 68.8356 46.7172 69.2323 46.7172C69.622 46.7172 69.9603 46.6605 70.2472 46.5471C70.5377 46.4338 70.7627 46.2761 70.9221 46.0742C71.0815 45.8723 71.1612 45.6403 71.1612 45.3781C71.1612 45.1337 71.0886 44.9282 70.9433 44.7617C70.8016 44.5952 70.5926 44.4535 70.3163 44.3366C70.0435 44.2197 69.7088 44.1134 69.312 44.0178L68.1271 43.7202C67.2096 43.4971 66.4851 43.1481 65.9538 42.6734C65.4224 42.1987 65.1585 41.5593 65.162 40.7552C65.1585 40.0963 65.3338 39.5206 65.6881 39.0282C66.0459 38.5358 66.5365 38.1515 67.16 37.8751C67.7834 37.5988 68.4919 37.4607 69.2855 37.4607C70.0931 37.4607 70.7981 37.5988 71.4003 37.8751C72.0061 38.1515 72.4772 38.5358 72.8138 39.0282C73.1503 39.5206 73.3239 40.091 73.3345 40.7392H71.1293ZM78.708 48.6514C77.8684 48.6514 77.1458 48.4813 76.54 48.1412C75.9378 47.7976 75.4737 47.3123 75.1478 46.6853C74.8219 46.0547 74.6589 45.309 74.6589 44.4482C74.6589 43.6086 74.8219 42.8718 75.1478 42.2377C75.4737 41.6036 75.9325 41.1094 76.5241 40.7552C77.1192 40.4009 77.8171 40.2238 78.6177 40.2238C79.1561 40.2238 79.6574 40.3106 80.1214 40.4842C80.589 40.6542 80.9964 40.911 81.3436 41.2547C81.6943 41.5983 81.9671 42.0305 82.1619 42.5512C82.3567 43.0684 82.4542 43.6742 82.4542 44.3685V44.9902H75.5623V43.5874H80.3234C80.3234 43.2615 80.2525 42.9728 80.1108 42.7213C79.9691 42.4697 79.7725 42.2731 79.521 42.1314C79.273 41.9862 78.9843 41.9136 78.6549 41.9136C78.3112 41.9136 78.0066 41.9933 77.7409 42.1527C77.4788 42.3086 77.2733 42.5193 77.1245 42.785C76.9757 43.0472 76.8996 43.3394 76.896 43.6618V44.9955C76.896 45.3994 76.9704 45.7483 77.1192 46.0423C77.2715 46.3363 77.4858 46.5631 77.7621 46.7225C78.0385 46.8819 78.3661 46.9616 78.7452 46.9616C78.9967 46.9616 79.227 46.9262 79.436 46.8553C79.645 46.7845 79.8239 46.6782 79.9727 46.5365C80.1214 46.3948 80.2348 46.2212 80.3127 46.0158L82.4063 46.1539C82.3001 46.6569 82.0822 47.0962 81.7527 47.4717C81.4268 47.8437 81.0053 48.1342 80.4881 48.3432C79.9744 48.5486 79.3811 48.6514 78.708 48.6514ZM83.9314 48.4919V40.3301H86.1259V41.7542H86.211C86.3597 41.2476 86.6095 40.865 86.9602 40.6064C87.3109 40.3443 87.7147 40.2132 88.1717 40.2132C88.2851 40.2132 88.4073 40.2203 88.5384 40.2344C88.6694 40.2486 88.7846 40.2681 88.8837 40.2929V42.3015C88.7775 42.2696 88.6305 42.2412 88.4427 42.2165C88.255 42.1917 88.0831 42.1793 87.9273 42.1793C87.5943 42.1793 87.2967 42.2519 87.0346 42.3971C86.776 42.5388 86.5705 42.7372 86.4182 42.9923C86.2694 43.2473 86.195 43.5413 86.195 43.8743V48.4919H83.9314ZM97.9117 40.3301L95.0583 48.4919H92.5077L89.6542 40.3301H92.0454L93.7405 46.1699H93.8255L95.5153 40.3301H97.9117ZM99.0701 48.4919V40.3301H101.334V48.4919H99.0701ZM100.207 39.278C99.8707 39.278 99.582 39.1664 99.3411 38.9432C99.1038 38.7165 98.9851 38.4455 98.9851 38.1302C98.9851 37.8185 99.1038 37.551 99.3411 37.3278C99.582 37.1011 99.8707 36.9878 100.207 36.9878C100.544 36.9878 100.831 37.1011 101.068 37.3278C101.309 37.551 101.429 37.8185 101.429 38.1302C101.429 38.4455 101.309 38.7165 101.068 38.9432C100.831 39.1664 100.544 39.278 100.207 39.278ZM106.835 48.6514C105.999 48.6514 105.28 48.4742 104.677 48.12C104.079 47.7622 103.618 47.2662 103.296 46.6321C102.977 45.998 102.818 45.2683 102.818 44.4429C102.818 43.6069 102.979 42.8736 103.301 42.243C103.627 41.6089 104.089 41.1147 104.688 40.7605C105.287 40.4027 105.999 40.2238 106.824 40.2238C107.536 40.2238 108.16 40.3531 108.695 40.6117C109.23 40.8703 109.653 41.2334 109.965 41.701C110.276 42.1686 110.448 42.7177 110.48 43.3483H108.344C108.284 42.9409 108.124 42.6132 107.866 42.3652C107.611 42.1137 107.276 41.988 106.861 41.988C106.511 41.988 106.204 42.0836 105.942 42.2749C105.683 42.4627 105.482 42.7372 105.336 43.0985C105.191 43.4599 105.118 43.8974 105.118 44.411C105.118 44.9318 105.189 45.3746 105.331 45.7394C105.476 46.1043 105.68 46.3824 105.942 46.5737C106.204 46.765 106.511 46.8606 106.861 46.8606C107.12 46.8606 107.352 46.8075 107.557 46.7012C107.766 46.5949 107.938 46.4409 108.073 46.2389C108.211 46.0335 108.301 45.7873 108.344 45.5003H110.48C110.445 46.1238 110.275 46.6729 109.97 47.1476C109.669 47.6187 109.253 47.9871 108.721 48.2528C108.19 48.5185 107.561 48.6514 106.835 48.6514ZM115.649 48.6514C114.809 48.6514 114.087 48.4813 113.481 48.1412C112.879 47.7976 112.415 47.3123 112.089 46.6853C111.763 46.0547 111.6 45.309 111.6 44.4482C111.6 43.6086 111.763 42.8718 112.089 42.2377C112.415 41.6036 112.873 41.1094 113.465 40.7552C114.06 40.4009 114.758 40.2238 115.559 40.2238C116.097 40.2238 116.598 40.3106 117.062 40.4842C117.53 40.6542 117.937 40.911 118.285 41.2547C118.635 41.5983 118.908 42.0305 119.103 42.5512C119.298 43.0684 119.395 43.6742 119.395 44.3685V44.9902H112.503V43.5874H117.264C117.264 43.2615 117.193 42.9728 117.052 42.7213C116.91 42.4697 116.713 42.2731 116.462 42.1314C116.214 41.9862 115.925 41.9136 115.596 41.9136C115.252 41.9136 114.947 41.9933 114.682 42.1527C114.42 42.3086 114.214 42.5193 114.065 42.785C113.917 43.0472 113.84 43.3394 113.837 43.6618V44.9955C113.837 45.3994 113.911 45.7483 114.06 46.0423C114.212 46.3363 114.427 46.5631 114.703 46.7225C114.979 46.8819 115.307 46.9616 115.686 46.9616C115.938 46.9616 116.168 46.9262 116.377 46.8553C116.586 46.7845 116.765 46.6782 116.914 46.5365C117.062 46.3948 117.176 46.2212 117.254 46.0158L119.347 46.1539C119.241 46.6569 119.023 47.0962 118.694 47.4717C118.368 47.8437 117.946 48.1342 117.429 48.3432C116.915 48.5486 116.322 48.6514 115.649 48.6514Z" fill="#0C1820"/>
<path d="M34.4052 45.6099C31.6017 50.4656 24.5931 50.4656 21.7896 45.6099L3.42135 13.7951C0.617894 8.93937 4.12222 2.86971 9.72914 2.86971L46.4657 2.86971C52.0726 2.86971 55.5769 8.93938 52.7735 13.7951L34.4052 45.6099Z" fill="#1BADFF" stroke="#1BADFF" stroke-width="2.91344"/>
<path d="M19.0801 8.90552L11.4522 8.91098C9.70682 8.91223 8.62927 10.8161 9.52668 12.3131L27.6843 42.6025" stroke="white" stroke-width="3.7292" stroke-linecap="round"/>
<path d="M16.9537 17.0482C17.9834 17.0482 18.8183 16.2134 18.8183 15.1836C18.8183 14.1538 17.9834 13.319 16.9537 13.319L16.9537 17.0482ZM10.7964 17.0482L16.9537 17.0482L16.9537 13.319L10.7964 13.319L10.7964 17.0482Z" fill="white"/>
<path d="M27.9202 26.5244L30.8723 32.0065C31.7094 33.5612 33.9303 33.587 34.8035 32.0523L41.1453 20.9056C41.5044 20.2746 41.5363 19.5089 41.2312 18.8501L38.1028 12.0968C37.4129 10.6077 38.5004 8.90552 40.1415 8.90552L44.2852 8.90552C46.0195 8.90552 47.0999 10.7869 46.2259 12.2848L45.2206 14.0075" stroke="white" stroke-width="3.7292" stroke-linecap="round" stroke-linejoin="round"/>
<path d="M34.805 20.6163L30.1789 10.6562C29.3778 8.93133 26.9297 8.9198 26.1124 10.6371L22.8917 17.4038C22.182 18.8948 23.2692 20.6163 24.9205 20.6163L28.166 20.6163" stroke="white" stroke-width="3.7292" stroke-linecap="round"/>
</svg>
