<svg width="192" height="62" viewBox="0 0 192 62" fill="none" xmlns="http://www.w3.org/2000/svg">
<path d="M71.8264 18.9106V8.28662H78.964V10.0972H73.8914V12.8355H78.1111V14.5114H73.8914V18.9106H71.8264ZM82.1069 19.0603C81.2989 19.0603 80.6854 18.8009 80.2664 18.2822C79.8474 17.7634 79.6379 16.9953 79.6379 15.9778V11.0698H81.643V15.5439C81.643 16.7509 82.077 17.3544 82.9448 17.3544C83.3339 17.3544 83.708 17.2397 84.0671 17.0103C84.4362 16.7709 84.7355 16.4118 84.9649 15.9329V11.0698H86.97V16.6063C86.97 16.8158 87.0049 16.9654 87.0747 17.0552C87.1545 17.145 87.2792 17.1948 87.4488 17.2048V18.9106C87.2493 18.9505 87.0797 18.9755 86.9401 18.9855C86.8104 18.9954 86.6907 19.0004 86.5809 19.0004C86.2218 19.0004 85.9275 18.9206 85.6981 18.761C85.4786 18.5914 85.349 18.362 85.3091 18.0727L85.2642 17.4442C84.915 17.9829 84.4661 18.3869 83.9175 18.6563C83.3688 18.9256 82.7653 19.0603 82.1069 19.0603ZM93.6611 18.5066C93.3918 18.6263 93.0626 18.746 92.6735 18.8658C92.2845 18.9855 91.8755 19.0453 91.4465 19.0453C91.1672 19.0453 90.9028 19.0104 90.6534 18.9406C90.414 18.8707 90.1996 18.761 90.01 18.6114C89.8305 18.4518 89.6858 18.2523 89.5761 18.0128C89.4664 17.7634 89.4115 17.4642 89.4115 17.115V12.611H88.379V11.0698H89.4115V8.52604H91.4166V11.0698H93.0626V12.611H91.4166V16.4417C91.4166 16.721 91.4864 16.9205 91.6261 17.0402C91.7757 17.1499 91.9553 17.2048 92.1648 17.2048C92.3742 17.2048 92.5787 17.1699 92.7783 17.1001C92.9778 17.0302 93.1374 16.9704 93.2571 16.9205L93.6611 18.5066ZM97.0995 19.0603C96.2915 19.0603 95.678 18.8009 95.259 18.2822C94.84 17.7634 94.6306 16.9953 94.6306 15.9778V11.0698H96.6357V15.5439C96.6357 16.7509 97.0696 17.3544 97.9375 17.3544C98.3265 17.3544 98.7006 17.2397 99.0597 17.0103C99.4288 16.7709 99.7281 16.4118 99.9575 15.9329V11.0698H101.963V16.6063C101.963 16.8158 101.998 16.9654 102.067 17.0552C102.147 17.145 102.272 17.1948 102.441 17.2048V18.9106C102.242 18.9505 102.072 18.9755 101.933 18.9855C101.803 18.9954 101.683 19.0004 101.574 19.0004C101.214 19.0004 100.92 18.9206 100.691 18.761C100.471 18.5914 100.342 18.362 100.302 18.0727L100.257 17.4442C99.9077 17.9829 99.4588 18.3869 98.9101 18.6563C98.3614 18.9256 97.7579 19.0603 97.0995 19.0603ZM108.624 12.8056C108.015 12.8155 107.472 12.9353 106.993 13.1647C106.514 13.3842 106.17 13.7183 105.96 14.1672V18.9106H103.955V11.0698H105.796V12.7457C105.935 12.4764 106.1 12.237 106.29 12.0275C106.479 11.808 106.684 11.6185 106.903 11.4589C107.122 11.2993 107.342 11.1795 107.561 11.0997C107.791 11.01 108.01 10.9651 108.22 10.9651C108.33 10.9651 108.409 10.9651 108.459 10.9651C108.519 10.9651 108.574 10.9701 108.624 10.98V12.8056ZM112.983 19.0603C112.355 19.0603 111.786 18.9555 111.278 18.746C110.769 18.5266 110.335 18.2323 109.976 17.8632C109.617 17.4941 109.337 17.0652 109.138 16.5764C108.948 16.0875 108.854 15.5738 108.854 15.0351C108.854 14.4765 108.948 13.9528 109.138 13.464C109.327 12.9652 109.602 12.5312 109.961 12.1621C110.32 11.7831 110.754 11.4838 111.263 11.2643C111.781 11.0449 112.36 10.9351 112.998 10.9351C113.637 10.9351 114.205 11.0449 114.704 11.2643C115.213 11.4838 115.642 11.7781 115.991 12.1472C116.35 12.5163 116.62 12.9452 116.799 13.434C116.989 13.9228 117.083 14.4316 117.083 14.9603C117.083 15.09 117.078 15.2147 117.068 15.3344C117.068 15.4541 117.058 15.5539 117.038 15.6337H110.978C111.008 15.9429 111.083 16.2172 111.203 16.4566C111.322 16.6961 111.477 16.9006 111.667 17.0701C111.856 17.2397 112.071 17.3694 112.31 17.4592C112.549 17.549 112.799 17.5939 113.058 17.5939C113.457 17.5939 113.831 17.4991 114.18 17.3096C114.54 17.11 114.784 16.8507 114.914 16.5315L116.634 17.0103C116.345 17.6088 115.881 18.1026 115.243 18.4917C114.614 18.8707 113.861 19.0603 112.983 19.0603ZM115.018 14.3318C114.969 13.7433 114.749 13.2744 114.36 12.9253C113.981 12.5662 113.517 12.3866 112.968 12.3866C112.699 12.3866 112.445 12.4365 112.205 12.5362C111.976 12.626 111.771 12.7557 111.592 12.9253C111.412 13.0949 111.263 13.2994 111.143 13.5388C111.033 13.7782 110.968 14.0425 110.948 14.3318H115.018ZM74.849 23.2866H76.6746L80.7147 33.9106H78.5899L77.6023 31.2621H73.8914L72.9188 33.9106H70.794L74.849 23.2866ZM77.2282 29.8107L75.7618 25.6359L74.2355 29.8107H77.2282ZM84.5605 34.0603C83.9021 34.0603 83.2587 33.9555 82.6303 33.746C82.0018 33.5366 81.4631 33.2373 81.0142 32.8482L81.7624 31.5913C82.2412 31.9305 82.7051 32.1899 83.154 32.3694C83.6129 32.539 84.0667 32.6238 84.5156 32.6238C84.9147 32.6238 85.2289 32.549 85.4583 32.3993C85.6878 32.2497 85.8025 32.0352 85.8025 31.7559C85.8025 31.4766 85.6678 31.2721 85.3985 31.1424C85.1291 31.0127 84.6902 30.8631 84.0817 30.6935C83.5729 30.5539 83.139 30.4192 82.7799 30.2895C82.4208 30.1598 82.1315 30.0152 81.912 29.8556C81.6925 29.686 81.5329 29.4964 81.4332 29.287C81.3334 29.0675 81.2835 28.8081 81.2835 28.5089C81.2835 28.1098 81.3584 27.7507 81.508 27.4315C81.6676 27.1123 81.8871 26.8429 82.1664 26.6235C82.4457 26.394 82.7699 26.2195 83.139 26.0997C83.5181 25.98 83.9271 25.9202 84.366 25.9202C84.9546 25.9202 85.5032 26.005 86.012 26.1746C86.5307 26.3441 87.0046 26.6185 87.4335 26.9975L86.6255 28.2096C86.2265 27.9103 85.8374 27.6909 85.4583 27.5512C85.0892 27.4115 84.7201 27.3417 84.351 27.3417C84.0119 27.3417 83.7276 27.4115 83.4981 27.5512C83.2687 27.6909 83.154 27.9153 83.154 28.2245C83.154 28.3642 83.1789 28.4789 83.2288 28.5687C83.2886 28.6585 83.3784 28.7383 83.4981 28.8081C83.6178 28.878 83.7725 28.9478 83.962 29.0176C84.1615 29.0775 84.4059 29.1423 84.6952 29.2121C85.2339 29.3518 85.6928 29.4915 86.0718 29.6311C86.4609 29.7708 86.7751 29.9304 87.0145 30.1099C87.2639 30.2895 87.4435 30.499 87.5532 30.7384C87.6729 30.9678 87.7328 31.2472 87.7328 31.5764C87.7328 32.3445 87.4485 32.953 86.8799 33.4019C86.3113 33.8408 85.5381 34.0603 84.5605 34.0603ZM91.9984 34.0603C91.34 34.0603 90.6966 33.9555 90.0681 33.746C89.4397 33.5366 88.901 33.2373 88.4521 32.8482L89.2002 31.5913C89.6791 31.9305 90.1429 32.1899 90.5918 32.3694C91.0507 32.539 91.5046 32.6238 91.9535 32.6238C92.3525 32.6238 92.6668 32.549 92.8962 32.3993C93.1256 32.2497 93.2404 32.0352 93.2404 31.7559C93.2404 31.4766 93.1057 31.2721 92.8364 31.1424C92.567 31.0127 92.1281 30.8631 91.5196 30.6935C91.0108 30.5539 90.5769 30.4192 90.2178 30.2895C89.8586 30.1598 89.5693 30.0152 89.3499 29.8556C89.1304 29.686 88.9708 29.4964 88.871 29.287C88.7713 29.0675 88.7214 28.8081 88.7214 28.5089C88.7214 28.1098 88.7962 27.7507 88.9459 27.4315C89.1055 27.1123 89.3249 26.8429 89.6043 26.6235C89.8836 26.394 90.2078 26.2195 90.5769 26.0997C90.9559 25.98 91.3649 25.9202 91.8039 25.9202C92.3924 25.9202 92.9411 26.005 93.4499 26.1746C93.9686 26.3441 94.4424 26.6185 94.8714 26.9975L94.0634 28.2096C93.6643 27.9103 93.2753 27.6909 92.8962 27.5512C92.5271 27.4115 92.158 27.3417 91.7889 27.3417C91.4497 27.3417 91.1654 27.4115 90.936 27.5512C90.7066 27.6909 90.5918 27.9153 90.5918 28.2245C90.5918 28.3642 90.6168 28.4789 90.6667 28.5687C90.7265 28.6585 90.8163 28.7383 90.936 28.8081C91.0557 28.878 91.2103 28.9478 91.3999 29.0176C91.5994 29.0775 91.8438 29.1423 92.1331 29.2121C92.6718 29.3518 93.1306 29.4915 93.5097 29.6311C93.8988 29.7708 94.213 29.9304 94.4524 30.1099C94.7018 30.2895 94.8814 30.499 94.9911 30.7384C95.1108 30.9678 95.1706 31.2472 95.1706 31.5764C95.1706 32.3445 94.8863 32.953 94.3177 33.4019C93.7491 33.8408 92.976 34.0603 91.9984 34.0603ZM100.11 34.0603C99.4812 34.0603 98.9125 33.9555 98.4038 33.746C97.895 33.5266 97.4611 33.2323 97.102 32.8632C96.7429 32.4941 96.4635 32.0652 96.264 31.5764C96.0745 31.0875 95.9797 30.5738 95.9797 30.0351C95.9797 29.4765 96.0745 28.9528 96.264 28.464C96.4536 27.9652 96.7279 27.5312 97.087 27.1621C97.4461 26.7831 97.8801 26.4838 98.3888 26.2643C98.9076 26.0449 99.4861 25.9351 100.125 25.9351C100.763 25.9351 101.332 26.0449 101.83 26.2643C102.339 26.4838 102.768 26.7781 103.117 27.1472C103.476 27.5163 103.746 27.9452 103.925 28.434C104.115 28.9228 104.21 29.4316 104.21 29.9603C104.21 30.09 104.205 30.2147 104.195 30.3344C104.195 30.4541 104.185 30.5539 104.165 30.6337H98.1045C98.1345 30.9429 98.2093 31.2172 98.329 31.4566C98.4487 31.6961 98.6033 31.9006 98.7928 32.0701C98.9824 32.2397 99.1969 32.3694 99.4363 32.4592C99.6757 32.549 99.9251 32.5939 100.184 32.5939C100.583 32.5939 100.958 32.4991 101.307 32.3096C101.666 32.11 101.91 31.8507 102.04 31.5315L103.761 32.0103C103.471 32.6088 103.008 33.1026 102.369 33.4917C101.741 33.8707 100.987 34.0603 100.11 34.0603ZM102.145 29.3318C102.095 28.7433 101.875 28.2744 101.486 27.9253C101.107 27.5662 100.643 27.3866 100.095 27.3866C99.8253 27.3866 99.5709 27.4365 99.3315 27.5362C99.1021 27.626 98.8976 27.7557 98.718 27.9253C98.5385 28.0949 98.3888 28.2994 98.2691 28.5388C98.1594 28.7782 98.0945 29.0425 98.0746 29.3318H102.145ZM108.394 34.0603C107.735 34.0603 107.092 33.9555 106.464 33.746C105.835 33.5366 105.296 33.2373 104.848 32.8482L105.596 31.5913C106.075 31.9305 106.538 32.1899 106.987 32.3694C107.446 32.539 107.9 32.6238 108.349 32.6238C108.748 32.6238 109.062 32.549 109.292 32.3993C109.521 32.2497 109.636 32.0352 109.636 31.7559C109.636 31.4766 109.501 31.2721 109.232 31.1424C108.962 31.0127 108.524 30.8631 107.915 30.6935C107.406 30.5539 106.972 30.4192 106.613 30.2895C106.254 30.1598 105.965 30.0152 105.745 29.8556C105.526 29.686 105.366 29.4964 105.267 29.287C105.167 29.0675 105.117 28.8081 105.117 28.5089C105.117 28.1098 105.192 27.7507 105.341 27.4315C105.501 27.1123 105.72 26.8429 106 26.6235C106.279 26.394 106.603 26.2195 106.972 26.0997C107.351 25.98 107.76 25.9202 108.199 25.9202C108.788 25.9202 109.337 26.005 109.845 26.1746C110.364 26.3441 110.838 26.6185 111.267 26.9975L110.459 28.2096C110.06 27.9103 109.671 27.6909 109.292 27.5512C108.923 27.4115 108.553 27.3417 108.184 27.3417C107.845 27.3417 107.561 27.4115 107.331 27.5512C107.102 27.6909 106.987 27.9153 106.987 28.2245C106.987 28.3642 107.012 28.4789 107.062 28.5687C107.122 28.6585 107.212 28.7383 107.331 28.8081C107.451 28.878 107.606 28.9478 107.795 29.0176C107.995 29.0775 108.239 29.1423 108.529 29.2121C109.067 29.3518 109.526 29.4915 109.905 29.6311C110.294 29.7708 110.608 29.9304 110.848 30.1099C111.097 30.2895 111.277 30.499 111.387 30.7384C111.506 30.9678 111.566 31.2472 111.566 31.5764C111.566 32.3445 111.282 32.953 110.713 33.4019C110.145 33.8408 109.371 34.0603 108.394 34.0603ZM115.832 34.0603C115.173 34.0603 114.53 33.9555 113.901 33.746C113.273 33.5366 112.734 33.2373 112.285 32.8482L113.034 31.5913C113.512 31.9305 113.976 32.1899 114.425 32.3694C114.884 32.539 115.338 32.6238 115.787 32.6238C116.186 32.6238 116.5 32.549 116.73 32.3993C116.959 32.2497 117.074 32.0352 117.074 31.7559C117.074 31.4766 116.939 31.2721 116.67 31.1424C116.4 31.0127 115.961 30.8631 115.353 30.6935C114.844 30.5539 114.41 30.4192 114.051 30.2895C113.692 30.1598 113.403 30.0152 113.183 29.8556C112.964 29.686 112.804 29.4964 112.704 29.287C112.605 29.0675 112.555 28.8081 112.555 28.5089C112.555 28.1098 112.63 27.7507 112.779 27.4315C112.939 27.1123 113.158 26.8429 113.438 26.6235C113.717 26.394 114.041 26.2195 114.41 26.0997C114.789 25.98 115.198 25.9202 115.637 25.9202C116.226 25.9202 116.774 26.005 117.283 26.1746C117.802 26.3441 118.276 26.6185 118.705 26.9975L117.897 28.2096C117.498 27.9103 117.109 27.6909 116.73 27.5512C116.36 27.4115 115.991 27.3417 115.622 27.3417C115.283 27.3417 114.999 27.4115 114.769 27.5512C114.54 27.6909 114.425 27.9153 114.425 28.2245C114.425 28.3642 114.45 28.4789 114.5 28.5687C114.56 28.6585 114.65 28.7383 114.769 28.8081C114.889 28.878 115.044 28.9478 115.233 29.0176C115.433 29.0775 115.677 29.1423 115.966 29.2121C116.505 29.3518 116.964 29.4915 117.343 29.6311C117.732 29.7708 118.046 29.9304 118.286 30.1099C118.535 30.2895 118.715 30.499 118.824 30.7384C118.944 30.9678 119.004 31.2472 119.004 31.5764C119.004 32.3445 118.72 32.953 118.151 33.4019C117.582 33.8408 116.809 34.0603 115.832 34.0603ZM132.487 33.9106H130.482V29.5114C130.482 28.8829 130.372 28.4241 130.153 28.1348C129.943 27.8455 129.649 27.7008 129.27 27.7008C128.871 27.7008 128.497 27.8555 128.148 28.1647C127.799 28.464 127.549 28.858 127.399 29.3468V33.9106H125.394V29.5114C125.394 28.8829 125.285 28.4241 125.065 28.1348C124.856 27.8455 124.561 27.7008 124.182 27.7008C123.793 27.7008 123.419 27.8505 123.06 28.1497C122.711 28.449 122.462 28.843 122.312 29.3318V33.9106H120.307V26.0698H122.117V27.5213C122.407 27.0125 122.801 26.6235 123.3 26.3541C123.808 26.0748 124.387 25.9351 125.035 25.9351C125.694 25.9351 126.202 26.0948 126.562 26.414C126.921 26.7332 127.15 27.1272 127.25 27.5961C127.569 27.0574 127.973 26.6484 128.462 26.3691C128.951 26.0798 129.509 25.9351 130.138 25.9351C130.617 25.9351 131.011 26.0249 131.32 26.2045C131.629 26.384 131.869 26.6185 132.038 26.9078C132.208 27.1971 132.322 27.5263 132.382 27.8954C132.452 28.2645 132.487 28.6385 132.487 29.0176V33.9106ZM137.869 34.0603C137.24 34.0603 136.672 33.9555 136.163 33.746C135.654 33.5266 135.22 33.2323 134.861 32.8632C134.502 32.4941 134.223 32.0652 134.023 31.5764C133.834 31.0875 133.739 30.5738 133.739 30.0351C133.739 29.4765 133.834 28.9528 134.023 28.464C134.213 27.9652 134.487 27.5312 134.846 27.1621C135.205 26.7831 135.639 26.4838 136.148 26.2643C136.667 26.0449 137.245 25.9351 137.884 25.9351C138.522 25.9351 139.091 26.0449 139.59 26.2643C140.098 26.4838 140.527 26.7781 140.876 27.1472C141.236 27.5163 141.505 27.9452 141.685 28.434C141.874 28.9228 141.969 29.4316 141.969 29.9603C141.969 30.09 141.964 30.2147 141.954 30.3344C141.954 30.4541 141.944 30.5539 141.924 30.6337H135.864C135.894 30.9429 135.968 31.2172 136.088 31.4566C136.208 31.6961 136.363 31.9006 136.552 32.0701C136.742 32.2397 136.956 32.3694 137.195 32.4592C137.435 32.549 137.684 32.5939 137.944 32.5939C138.343 32.5939 138.717 32.4991 139.066 32.3096C139.425 32.11 139.669 31.8507 139.799 31.5315L141.52 32.0103C141.231 32.6088 140.767 33.1026 140.128 33.4917C139.5 33.8707 138.747 34.0603 137.869 34.0603ZM139.904 29.3318C139.854 28.7433 139.635 28.2744 139.245 27.9253C138.866 27.5662 138.403 27.3866 137.854 27.3866C137.585 27.3866 137.33 27.4365 137.091 27.5362C136.861 27.626 136.657 27.7557 136.477 27.9253C136.298 28.0949 136.148 28.2994 136.028 28.5388C135.919 28.7782 135.854 29.0425 135.834 29.3318H139.904ZM150.478 33.9106H148.472V29.5114C148.472 28.8829 148.363 28.4241 148.143 28.1348C147.924 27.8455 147.619 27.7008 147.23 27.7008C147.031 27.7008 146.826 27.7407 146.617 27.8205C146.407 27.9003 146.208 28.0151 146.018 28.1647C145.839 28.3044 145.674 28.4739 145.525 28.6735C145.375 28.873 145.265 29.0924 145.195 29.3318V33.9106H143.19V26.0698H145.001V27.5213C145.29 27.0225 145.709 26.6334 146.258 26.3541C146.806 26.0748 147.425 25.9351 148.113 25.9351C148.602 25.9351 149.001 26.0249 149.31 26.2045C149.62 26.384 149.859 26.6185 150.029 26.9078C150.198 27.1971 150.313 27.5263 150.373 27.8954C150.443 28.2645 150.478 28.6385 150.478 29.0176V33.9106ZM156.846 33.5066C156.577 33.6263 156.248 33.746 155.859 33.8658C155.47 33.9855 155.061 34.0453 154.632 34.0453C154.353 34.0453 154.088 34.0104 153.839 33.9406C153.599 33.8707 153.385 33.761 153.195 33.6114C153.016 33.4518 152.871 33.2523 152.761 33.0128C152.652 32.7634 152.597 32.4642 152.597 32.115V27.611H151.564V26.0698H152.597V23.526H154.602V26.0698H156.248V27.611H154.602V31.4417C154.602 31.721 154.672 31.9205 154.811 32.0402C154.961 32.1499 155.141 32.2048 155.35 32.2048C155.56 32.2048 155.764 32.1699 155.964 32.1001C156.163 32.0302 156.323 31.9704 156.442 31.9205L156.846 33.5066ZM78.156 41.0698C78.0861 41 77.9564 40.9052 77.7669 40.7855C77.5874 40.6658 77.3629 40.5511 77.0936 40.4414C76.8342 40.3216 76.5499 40.2219 76.2406 40.1421C75.9314 40.0623 75.6172 40.0224 75.298 40.0224C74.7293 40.0224 74.3054 40.1271 74.0261 40.3366C73.7467 40.5461 73.6071 40.8404 73.6071 41.2195C73.6071 41.4389 73.657 41.6235 73.7567 41.7731C73.8665 41.9128 74.0211 42.0375 74.2206 42.1472C74.4201 42.2569 74.6695 42.3567 74.9688 42.4465C75.278 42.5362 75.6321 42.631 76.0312 42.7308C76.5499 42.8704 77.0187 43.02 77.4377 43.1797C77.8667 43.3393 78.2258 43.5388 78.5151 43.7782C78.8144 44.0176 79.0438 44.3069 79.2034 44.6461C79.363 44.9753 79.4428 45.3843 79.4428 45.8731C79.4428 46.4417 79.3331 46.9305 79.1136 47.3395C78.9041 47.7385 78.6148 48.0627 78.2457 48.3121C77.8866 48.5615 77.4676 48.746 76.9888 48.8658C76.52 48.9755 76.0262 49.0304 75.5074 49.0304C74.7094 49.0304 73.9213 48.9106 73.1432 48.6712C72.3651 48.4318 71.6668 48.0926 71.0483 47.6537L71.9611 45.8731C72.0509 45.9629 72.2105 46.0826 72.4399 46.2322C72.6794 46.3719 72.9587 46.5165 73.2779 46.6661C73.5971 46.8058 73.9512 46.9255 74.3403 47.0253C74.7293 47.125 75.1284 47.1749 75.5374 47.1749C76.6746 47.1749 77.2432 46.8108 77.2432 46.0826C77.2432 45.8531 77.1784 45.6586 77.0487 45.499C76.919 45.3394 76.7344 45.1997 76.495 45.08C76.2556 44.9603 75.9663 44.8506 75.6271 44.7508C75.288 44.6511 74.9089 44.5413 74.4899 44.4216C73.9812 44.282 73.5373 44.1323 73.1582 43.9727C72.7891 43.8031 72.4798 43.6086 72.2305 43.3891C71.9811 43.1597 71.7915 42.9003 71.6618 42.611C71.5421 42.3118 71.4823 41.9576 71.4823 41.5486C71.4823 41.01 71.582 40.5311 71.7815 40.1122C71.9811 39.6932 72.2554 39.344 72.6045 39.0647C72.9637 38.7854 73.3776 38.5759 73.8465 38.4363C74.3154 38.2866 74.8191 38.2118 75.3578 38.2118C76.106 38.2118 76.7943 38.3315 77.4228 38.5709C78.0512 38.8004 78.5999 39.0747 79.0687 39.3939L78.156 41.0698ZM84.4448 49.0603C83.8163 49.0603 83.2477 48.9555 82.739 48.746C82.2302 48.5266 81.7963 48.2323 81.4372 47.8632C81.078 47.4941 80.7987 47.0652 80.5992 46.5764C80.4097 46.0875 80.3149 45.5738 80.3149 45.0351C80.3149 44.4765 80.4097 43.9528 80.5992 43.464C80.7887 42.9652 81.0631 42.5312 81.4222 42.1621C81.7813 41.7831 82.2153 41.4838 82.724 41.2643C83.2427 41.0449 83.8213 40.9351 84.4598 40.9351C85.0982 40.9351 85.6668 41.0449 86.1656 41.2643C86.6744 41.4838 87.1033 41.7781 87.4524 42.1472C87.8116 42.5163 88.0809 42.9452 88.2605 43.434C88.45 43.9228 88.5448 44.4316 88.5448 44.9603C88.5448 45.09 88.5398 45.2147 88.5298 45.3344C88.5298 45.4541 88.5198 45.5539 88.4999 45.6337H82.4397C82.4696 45.9429 82.5444 46.2172 82.6642 46.4566C82.7839 46.6961 82.9385 46.9006 83.128 47.0701C83.3176 47.2397 83.532 47.3694 83.7714 47.4592C84.0109 47.549 84.2603 47.5939 84.5196 47.5939C84.9186 47.5939 85.2927 47.4991 85.6419 47.3096C86.001 47.11 86.2454 46.8507 86.3751 46.5315L88.0959 47.0103C87.8066 47.6088 87.3427 48.1026 86.7043 48.4917C86.0758 48.8707 85.3227 49.0603 84.4448 49.0603ZM86.4798 44.3318C86.4299 43.7433 86.2105 43.2744 85.8214 42.9253C85.4424 42.5662 84.9785 42.3866 84.4298 42.3866C84.1605 42.3866 83.9061 42.4365 83.6667 42.5362C83.4373 42.626 83.2328 42.7557 83.0532 42.9253C82.8736 43.0949 82.724 43.2994 82.6043 43.5388C82.4946 43.7782 82.4297 44.0425 82.4098 44.3318H86.4798ZM94.4349 42.8056C93.8264 42.8155 93.2827 42.9353 92.8039 43.1647C92.325 43.3842 91.9809 43.7183 91.7714 44.1672V48.9106H89.7663V41.0698H91.6068V42.7457C91.7464 42.4764 91.911 42.237 92.1006 42.0275C92.2901 41.808 92.4946 41.6185 92.7141 41.4589C92.9335 41.2993 93.153 41.1795 93.3725 41.0997C93.6019 41.01 93.8214 40.9651 94.0309 40.9651C94.1406 40.9651 94.2204 40.9651 94.2703 40.9651C94.3301 40.9651 94.385 40.9701 94.4349 40.98V42.8056ZM97.6628 48.9106L94.7748 41.0698H96.8398L98.8299 47.2796L100.835 41.0698H102.72L99.8324 48.9106H97.6628ZM103.765 48.9106V41.0698H105.77V48.9106H103.765ZM103.765 39.9775V37.9874H105.77V39.9775H103.765ZM107.085 44.9902C107.085 44.4416 107.18 43.9228 107.37 43.434C107.559 42.9452 107.834 42.5163 108.193 42.1472C108.552 41.7781 108.986 41.4838 109.494 41.2643C110.003 41.0449 110.577 40.9351 111.215 40.9351C112.073 40.9351 112.801 41.1197 113.4 41.4888C114.008 41.8579 114.462 42.3417 114.762 42.9402L112.801 43.5388C112.632 43.2495 112.407 43.03 112.128 42.8804C111.849 42.7208 111.539 42.641 111.2 42.641C110.911 42.641 110.642 42.7008 110.392 42.8205C110.143 42.9303 109.923 43.0899 109.734 43.2994C109.554 43.4989 109.41 43.7433 109.3 44.0326C109.2 44.3219 109.15 44.6411 109.15 44.9902C109.15 45.3394 109.205 45.6586 109.315 45.9479C109.425 46.2372 109.569 46.4866 109.749 46.6961C109.938 46.9055 110.158 47.0701 110.407 47.1899C110.657 47.2996 110.921 47.3544 111.2 47.3544C111.559 47.3544 111.889 47.2647 112.188 47.0851C112.497 46.9055 112.712 46.6861 112.831 46.4267L114.792 47.0253C114.522 47.6238 114.078 48.1126 113.46 48.4917C112.841 48.8707 112.098 49.0603 111.23 49.0603C110.592 49.0603 110.018 48.9505 109.509 48.7311C109.001 48.5116 108.567 48.2173 108.208 47.8482C107.849 47.4692 107.569 47.0352 107.37 46.5464C107.18 46.0476 107.085 45.5289 107.085 44.9902ZM119.588 49.0603C118.96 49.0603 118.391 48.9555 117.883 48.746C117.374 48.5266 116.94 48.2323 116.581 47.8632C116.222 47.4941 115.942 47.0652 115.743 46.5764C115.553 46.0875 115.458 45.5738 115.458 45.0351C115.458 44.4765 115.553 43.9528 115.743 43.464C115.932 42.9652 116.207 42.5312 116.566 42.1621C116.925 41.7831 117.359 41.4838 117.868 41.2643C118.386 41.0449 118.965 40.9351 119.603 40.9351C120.242 40.9351 120.81 41.0449 121.309 41.2643C121.818 41.4838 122.247 41.7781 122.596 42.1472C122.955 42.5163 123.224 42.9452 123.404 43.434C123.594 43.9228 123.688 44.4316 123.688 44.9603C123.688 45.09 123.683 45.2147 123.673 45.3344C123.673 45.4541 123.663 45.5539 123.643 45.6337H117.583C117.613 45.9429 117.688 46.2172 117.808 46.4566C117.927 46.6961 118.082 46.9006 118.272 47.0701C118.461 47.2397 118.676 47.3694 118.915 47.4592C119.154 47.549 119.404 47.5939 119.663 47.5939C120.062 47.5939 120.436 47.4991 120.785 47.3096C121.145 47.11 121.389 46.8507 121.519 46.5315L123.239 47.0103C122.95 47.6088 122.486 48.1026 121.848 48.4917C121.219 48.8707 120.466 49.0603 119.588 49.0603ZM121.623 44.3318C121.574 43.7433 121.354 43.2744 120.965 42.9253C120.586 42.5662 120.122 42.3866 119.573 42.3866C119.304 42.3866 119.05 42.4365 118.81 42.5362C118.581 42.626 118.376 42.7557 118.197 42.9253C118.017 43.0949 117.868 43.2994 117.748 43.5388C117.638 43.7782 117.573 44.0425 117.553 44.3318H121.623Z" fill="#0C1820"/>
<path d="M38.8451 49.2698C36.9387 52.5717 32.1728 52.5717 30.2665 49.2698L7.86124 10.4628C5.95488 7.1609 8.33783 3.03353 12.1505 3.03353L56.961 3.03353C60.7737 3.03353 63.1567 7.16091 61.2503 10.4628L38.8451 49.2698Z" fill="#1BADFF" stroke="#1BADFF" stroke-width="2.91344"/>
<path d="M26.5412 8.4624L13.5922 8.47075C13.4125 8.47087 13.3006 8.66562 13.3908 8.82095L24.0091 27.0898" stroke="white" stroke-width="3.49613" stroke-linecap="round"/>
<path d="M34.4032 45.0479L27.638 33.3303" stroke="white" stroke-width="3.49613" stroke-linecap="round"/>
<path d="M37.9354 39.3349L31.0597 27.6812" stroke="white" stroke-width="3.49613" stroke-linecap="round"/>
<path d="M23.1264 16.7229C24.0918 16.7229 24.8745 15.9403 24.8745 14.9749C24.8745 14.0094 24.0918 13.2268 23.1264 13.2268L23.1264 16.7229ZM16.6184 16.7229L23.1264 16.7229L23.1264 13.2268L16.6184 13.2268L16.6184 16.7229Z" fill="white"/>
<path d="M34.6723 21.6211L41.0582 32.6077C41.1483 32.7628 41.3725 32.7622 41.4618 32.6067L48.9893 19.5007C49.0309 19.4284 49.0306 19.3393 48.9886 19.2672L42.8898 8.81292C42.7992 8.65754 42.9112 8.4624 43.0911 8.4624L55.0102 8.4624C55.1901 8.4624 55.3021 8.65756 55.2115 8.81295L52.3278 13.7548" stroke="white" stroke-width="3.49613" stroke-linecap="round"/>
<path d="M41.5233 20.6106L34.8097 8.81436C34.7211 8.65562 34.493 8.65482 34.4034 8.81293L27.5791 20.6106" stroke="white" stroke-width="3.49613" stroke-linecap="round"/>
</svg>
